<svg xmlns="http://www.w3.org/2000/svg" width="64" height="64" viewBox="0 0 64 64" fill="none">
  <path d="M32 52C44.1503 52 54 42.1503 54 30C54 17.8497 44.1503 8 32 8C19.8497 8 10 17.8497 10 30C10 34.2 11.2 38.1 13.3 41.4L12 56L26.2 52.8C28.1 53.6 30 54 32 54" stroke="#4C94E0" stroke-width="3" stroke-linecap="round" stroke-linejoin="round"/>
  <path d="M26 24C27 22 28.5 21.5 30 22.5L32 24.5C33 25.5 33 26.5 32.2 27.4L31.4 28.2C33.2 31.4 36 33.8 39.6 35.4L40.4 34.6C41.3 33.8 42.3 33.8 43.3 34.6L45.5 36.6C46.6 37.6 46.4 39.3 45.1 40.3C43.4 41.6 41.2 42.2 39 41.8C31.5 40.4 23.6 33.1 22.2 25.4C21.8 23.2 22.4 21 23.7 19.3" stroke="#4C94E0" stroke-width="3" stroke-linecap="round" stroke-linejoin="round"/>
</svg>
